<?xml version="1.0" encoding="UTF-8" standalone="no"?>
<svg
   width="512"
   height="512"
   version="1.1"
   viewBox="0 0 512 512"
   id="svg6"
   xmlns="http://www.w3.org/2000/svg"
   xmlns:svg="http://www.w3.org/2000/svg"
   xmlns:rdf="http://www.w3.org/1999/02/22-rdf-syntax-ns#"
   xmlns:cc="http://creativecommons.org/ns#"
   xmlns:dc="http://purl.org/dc/elements/1.1/">
  <title
     id="title6">Format Migrator Icon</title>
  <defs
     id="defs1">
    <style
       id="style1">
      .cls-1, .cls-2, .cls-3, .cls-4 {
        fill-rule: evenodd;
      }

      .cls-1, .cls-5 {
        fill: #fff;
      }

      .cls-2 {
        fill: #418fde;
      }

      .cls-3 {
        fill: #cb333b;
      }

      .cls-4 {
        fill: #ff585d;
      }
    </style>
  </defs>
  <g
     id="g6">
    <g
       id="Layer_1">
      <g
         id="g4">
        <path
           d="M-.3,254.1c0-72.2.4-144.3-.2-216.5C-.7,15.7,12.2-.6,32.7-.5c59.5.2,118.9.1,178.4.1,13.1,0,26.2.1,39.2,0,6.8,0,12.3,2.8,17.2,8.5,30.7,35.7,61.5,71.3,92.4,106.8,4.5,5.2,6.8,11,6.8,18.5-.1,112.8,0,225.6,0,338.3,0,7.4-.6,14.6-3.9,21.1-6.3,12.3-15.6,18.6-28.2,18.5-69.7,0-139.3,0-209,0-30.8,0-61.7,0-92.5,0-21.2,0-33.4-14.3-33.4-38.9,0-72.8,0-145.6,0-218.4ZM335.6,488.6c4.2,0,7.9-1.1,9.8-5.4,1.2-2.7,1.7-6,1.7-9.1,0-109.7,0-219.3,0-329,0-1.5-.1-3-.2-4.8-1.9,0-3.4,0-4.9,0-19,0-38,.1-56.9,0-23-.2-41.2-21.4-41.2-47.9,0-21.4,0-42.8,0-64.2,0-1.7,0-3.4,0-5.6-1.8,0-3.1,0-4.4,0-68.9,0-137.8,0-206.7,0-10.5,0-13.9,3.8-13.9,15.9,0,133.7,0,267.5,0,401.2,0,11.6,0,23.1,0,34.7,0,7.4,2.5,11.3,8.3,13.2,1.9.6,3.9.9,6,.9M263.9,37.7c0,18.2-.4,36.7.1,55.2.4,15.9,9,24.7,22.9,24.8,14.4,0,28.9,0,43.3,0,1,0,2-.1,3.1-.2-23.3-26.7-46.3-53.2-69.4-79.8Z"
           id="path1" />
        <path
           d="M462.2,447.8c10.5-13.9,20.2-26.9,30.1-39.6,2-2.6,4.6-5,7.4-6.1,4-1.5,8.2,1.3,10.3,5.5,2.3,4.6,2.1,8.7-1.1,13.1-14.4,19.7-29,39.2-43.5,58.8-1.4,1.9-2.8,3.9-4.2,5.8-5,6.4-11.1,6.5-16,0-10-13.1-19.8-26.3-29.7-39.5-6-8-11.9-16-17.7-24.1-4.4-6.1-4.2-12.5.4-17.2,4.3-4.4,10-3.5,14.5,2.5,9.9,13.1,19.9,26.3,30.5,40.4,0-2.7,0-4.4,0-6.2,0-53,0-105.9,0-158.9,0-2.5,0-5.1.3-7.6.7-6,4.9-10.1,9.8-9.7,5.3.4,9,4.8,9,11.1,0,19,0,38,0,57.1,0,36.1,0,72.3,0,108.4v6Z"
           id="path2" />
        <path
           d="M443.1,47.6c-9,11.9-17.3,22.9-25.7,34-1.8,2.4-3.5,4.8-5.3,7.1-4.1,5-9.8,5.4-14,1-4.1-4.4-4.3-11.1-.3-16.5,7.2-9.8,14.5-19.6,21.7-29.4,8.6-11.7,17.1-23.6,25.8-35.3,4.9-6.6,10.5-6.6,15.4.1,15.9,21.5,31.8,43,47.6,64.6,3.4,4.7,3.9,9.3,1.6,14-2.1,4.3-6.2,6.8-10.2,5.3-2.5-.9-5-3.1-6.8-5.4-10.1-13-19.9-26.2-30.7-40.4,0,2.8,0,4.4,0,6,0,54.2,0,108.4,0,162.7,0,9.7-7.6,15.4-14.2,10.4-1.9-1.4-3.4-4.4-4.2-7-.8-2.4-.6-5.3-.6-8,0-52.8,0-105.6,0-158.4,0-1.2,0-2.4,0-4.7Z"
           id="path3" />
        <path
           class="cls-5"
           d="M263.9,37.7c23.1,26.6,46.2,53.1,69.4,79.8-1.1,0-2.1.2-3.1.2-14.4,0-28.9,0-43.3,0-13.9,0-22.5-8.9-22.9-24.8-.5-18.5-.1-37-.1-55.2Z"
           id="path4" />
      </g>
      <g
         id="g5">
        <path
           id="path8-4"
           class="cls-2"
           d="M309.3,213.8l-49.8,49.2h-98.1v37.2h49.3v49.3h-49.3v61.3l-49.4,49.4h50c3.7,0,7-2.4,8.2-6l8.9-27.5c.9-2.6,2.9-4.7,5.5-5.5l6.9-2.2c2.6-.9,5.5-.4,7.7,1.2l23.4,17c3,2.2,7.1,2.2,10.2,0l21-15.2c3-2.2,4.3-6.1,3.1-9.7l-8.9-27.5c-.9-2.6-.4-5.5,1.2-7.7l4.2-5.8c1.6-2.2,4.2-3.6,7-3.6h28.6c3.8,0,7.1-2.4,8.3-6l8.1-24.6c1.2-3.6-.1-7.4-3.2-9.6l-23.6-17c-2.3-1.6-3.6-4.2-3.6-7v-7.1c0-2.8,1.3-5.4,3.6-7l27-19.4c2.3-1.6,3.6-4.2,3.6-7v-49.2Z" />
        <path
           id="path7-7"
           class="cls-4"
           d="M260,164.5l-49.3,49.3h49.3v49.3l49.3-49.3v-49.3h-49.3ZM112.1,361.6l-49.3,49.3v49.3h49.3l49.3-49.3h-49.3v-49.3Z" />
        <path
           id="path3-1"
           class="cls-3"
           d="M112.1,164.5l-49.3,49.3v197.2l49.3-49.3v-147.9h98.6l49.3-49.3H112.1Z" />
        <path
           id="path9-4"
           class="cls-1"
           d="M112.1,410.9h49.3v-61.4h49.3v-49.3h-49.3v-37.2h98.6v-49.3H112.1v197.2Z" />
      </g>
    </g>
  </g>
  <metadata
     id="metadata6">
    <rdf:RDF>
      <cc:License
         rdf:about="http://creativecommons.org/licenses/by/4.0/">
        <cc:permits
           rdf:resource="http://creativecommons.org/ns#Reproduction" />
        <cc:permits
           rdf:resource="http://creativecommons.org/ns#Distribution" />
        <cc:requires
           rdf:resource="http://creativecommons.org/ns#Notice" />
        <cc:requires
           rdf:resource="http://creativecommons.org/ns#Attribution" />
        <cc:permits
           rdf:resource="http://creativecommons.org/ns#DerivativeWorks" />
      </cc:License>
      <cc:Work
         rdf:about="">
        <cc:license
           rdf:resource="http://creativecommons.org/licenses/by/4.0/" />
        <dc:title>Format Migrator Icon</dc:title>
        <dc:date>31 July 2025</dc:date>
        <dc:creator>
          <cc:Agent>
            <dc:title>Chris Hennes</dc:title>
          </cc:Agent>
        </dc:creator>
      </cc:Work>
    </rdf:RDF>
  </metadata>
</svg>
